# xmcd
#
# Track frame offsets: 
#        150
#        18850
#        38075
#        55325
#        74105
#        90077
#        108972
#        131810
#        149597
#        168960
#        185635
#
# Disc length: 2745 seconds
#
# Revision: 2
# Processed by: cddbd v1.5.2PL0 Copyright (c) Steve Scherf et al.
# Submitted via: ExactAudioCopy v0.99pb4
#
DISCID=980ab70b
DTITLE=Jimmy Thackery And The Drivers - Drive To Survive
DYEAR=1996
DGENRE=Blues
TTITLE0=Drive To Survive
TTITLE1=You Got Work To Do
TTITLE2=Slow Down Baby
TTITLE3=Burford's Bop
TTITLE4=Long, Lean and Lanky
TTITLE5=Rub On Up
TTITLE6=That's How I Feel
TTITLE7=Apache
TTITLE8=Play To Win
TTITLE9=Cool Guitars
TTITLE10=All About My Girl
EXTD=
EXTT0=
EXTT1=
EXTT2=
EXTT3=
EXTT4=
EXTT5=
EXTT6=
EXTT7=
EXTT8=
EXTT9=
EXTT10=
PLAYORDER=
